<svg xmlns="http://www.w3.org/2000/svg" version="1.1" xmlns:xlink="http://www.w3.org/1999/xlink" xmlns:svgjs="http://svgjs.dev/svgjs" width="100%" height="100%" viewBox="0 0 1000 600"><rect width="1000" height="600" x="0" y="0" fill="#ffe8f5"/><g><rect width="333.3333333333333" height="333.3333333333333" y="228.00579194493628" fill="#1111" transform="matrix(0.6074342707436763,0,0,0.6074342707436762,0,60.2624212813308)" x="205.7836456298828"/><path d="M384.949137579319 469.67243776269055L384.949137579319 469.67243776269055Q385.22107374690665 469.67243776269055 381.7946780353011 469.3461143615853Q378.3410887069367 469.01979096047995 372.84797812166426 468.3943377750282Q367.35486753639185 467.7688845895764 361.1547229153913 467.0618505538482Q354.9273846776319 466.3276229013613 349.4342740923595 465.7021697159095Q343.941163507087 465.1039101472165 340.5419614122402 464.66881227907606Q337.14275931739337 464.23371441093565 337.33311463470477 464.23371441093565L337.33311463470477 464.23371441093565Q333.03652318681844 456.6738889519964 331.89439128294987 450.50093794775455Q330.75225937908135 444.35518056027155 331.40490618129195 439.6506848610035Q332.0847466002613 434.97338277849434 333.4172338214413 431.9276977015116Q334.7497210426212 428.85481900777006 335.3207869945555 427.41355731955497L335.3207869945555 427.41355731955497Q346.9868485840698 428.2837530558358 357.83710167082074 433.2601849226915Q368.6873547575718 438.23661678954727 377.9603780723139 444.54553587758295L377.9603780723139 444.54553587758295L383.69823120841534 442.1524976028108Q384.56842694469606 437.8559061549244 384.949137579319 433.1514104556564Q385.3298482139418 428.4741083731472 384.07894184303814 424.3678722425723L384.07894184303814 424.3678722425723Q379.51041422756407 423.11696587166864 371.84181430158964 419.71776377682187Q364.200407992374 416.3457552987338 355.879161264189 411.7500340665009Q347.557914536004 407.154312834268 340.97705928038056 402.28665543444737Q334.3690104079984 397.39180441786795 331.9759721332262 393.285568287293L331.9759721332262 393.285568287293Q331.1329700137042 390.04952789299887 330.5075168282524 384.31167475689745Q329.8820636428006 378.573821620796 329.4469657746602 371.93857913165505Q329.0118679065198 365.2761430257553 328.631157271897 359.1031920215135Q328.25044663727414 352.95743463403045 327.78815515237494 348.8511985034555L327.78815515237494 348.8511985034555Q334.66814019234494 337.7562028658755 343.39729117191155 331.01218590969944Q352.1536357682369 324.26816895352334 362.867920771194 319.6724477212905L362.867920771194 319.6724477212905Q366.40309094983473 320.7329987748827 370.7540696312386 322.8269072653083Q375.10504831264257 324.9480093724927 379.0209291259061 327.04191786291835Q382.9368099391696 329.135826353344 384.84036311228385 330.0876029399011L384.84036311228385 330.0876029399011L415.43318196590513 328.67353486844485Q417.74463939040095 337.7562028658755 416.87444365412017 345.4519964086087Q416.0314415345982 353.14778995134185 413.4752415592734 359.02161117123717Q410.94623520070735 364.8954323911325 407.98213097400094 368.5393770368082Q405.01802674729447 372.1561280657252 403.0056991071452 373.1350982690411L403.0056991071452 373.1350982690411Q398.70910765925885 372.1561280657252 392.2098332539117 369.43676638984783Q385.71055884856463 366.7174047139703 378.77618657507713 362.36642603256644Q371.84181430158964 358.0154473511625 366.0223803152119 352.2775942150611L366.0223803152119 352.2775942150611L364.77147394430824 352.2775942150611L361.1547229153913 372.3464833830366Q365.07060372865476 374.5491663404974 372.4128802535239 379.52559820735314Q379.78235039515175 384.50203007420885 388.34833967416574 390.9469172460384Q396.88713533642095 397.39180441786795 404.44696079536027 404.2989830745967Q412.0067862542995 411.17896811456666 416.1130223848745 417.2975318852909L416.1130223848745 417.2975318852909Q416.60250748653243 421.86605950076506 415.40598834914636 428.71885092397616Q414.2094692117603 435.5444487304286 412.57785220623384 441.9621422854994Q410.94623520070735 448.3526422238114 409.9128777638739 451.6974570851407L409.9128777638739 451.6974570851407Q404.44696079536027 457.1633740536543 398.4643651084299 461.8406761361635Q392.50896303825823 466.51797821867274 384.949137579319 469.67243776269055Z " fill="#111111" transform="matrix(0.6074342707436763,0,0,0.6074342707436762,0,60.2624212813308)"/><path d="M660.2363665780543 363.40378748557913L660.2363665780543 363.40378748557913L667.1269134930083 394.2744326893978Q675.087112095121 393.05552727844935 680.8333804610213 392.03562683255365Q686.5547732062898 391.0406020072895 691.6542754357683 389.946074699499Q696.7786532858784 388.8515473917085 702.9975584437791 387.63264198075996L702.9975584437791 387.63264198075996Q704.9129812324124 390.51821397402585 705.7338767132553 394.19980582750304Q706.5796478147298 397.8565220603486 706.5796478147298 401.43861143129936L706.5796478147298 401.43861143129936Q706.5796478147298 407.0356260734099 705.0871105768337 411.8863720965724Q703.5945733389375 416.7619937403665 702.126911721673 418.4037847020523L702.126911721673 418.4037847020523Q700.5348720012504 418.6774165289999 698.9179566601963 418.7520433908947Q697.3010413191421 418.8515458734211 695.6343747368247 418.8515458734211L695.6343747368247 418.8515458734211Q688.7438278218708 418.8515458734211 681.8284052862853 416.8863718435245Q674.9129827506998 414.9211978136279 668.7189532134308 411.41373530457196L668.7189532134308 411.41373530457196L668.271192042062 411.8614964759408Q671.5050227241703 420.9410980064757 673.8184554429093 430.26945574332666Q676.1318881616484 439.572937859546 675.1866145776474 449.72219107723976L675.1866145776474 449.72219107723976Q674.7388534062786 455.31920571935035 669.9876098656425 459.5480612267228Q665.2114907043749 463.80179235472684 658.8682074433162 466.11522507346587Q652.5249241822576 468.4286577922049 647.2761682289895 468.4286577922049L647.2761682289895 468.4286577922049Q641.7786560694053 468.4286577922049 637.0025369081377 465.5928370402022Q632.2512933675016 462.7570162881995 628.6940796171824 458.7769169871431Q625.1617414874949 454.79681768608674 623.4204480432827 451.46348452145196L623.4204480432827 451.46348452145196L629.092089547288 439.4983109976512L649.4652228445705 439.4983109976512Q642.5498003089849 418.1550284957362 637.8483080096121 403.77691977066996Q633.1219400896076 389.37393542497216 630.1866168550786 380.4684632388585Q627.2512936205494 371.53811543211316 625.6841295207585 366.73712065021385Q624.1169654209675 361.911250247683 623.4453236639142 359.82169811462836Q622.7985575274927 357.73214598157375 622.6741794243346 356.9361261213625Q622.524925700545 356.14010626115123 622.4502988386502 355.1948326771503L622.4502988386502 355.1948326771503Q622.4502988386502 349.771947379461 625.0373633843369 342.9311517057703Q627.5995523093918 336.1152316527112 631.7040297136064 331.9112517659704L631.7040297136064 331.9112517659704L670.9826346909067 340.1450821950308L701.9527823772518 331.2147343882855Q706.131886643361 333.40378900386656 708.1468119145208 338.7769230602927Q710.1617371856805 344.17493273735045 710.1617371856805 350.36896227461943L710.1617371856805 350.36896227461943Q710.1617371856805 357.0107529832573 707.8980557082048 363.32916062368434Q705.6094986100973 369.62269264347975 701.1567625170405 372.68239398116685L701.1567625170405 372.68239398116685Q691.1816386437679 371.1898567432707 680.783629219758 368.7271703007421Q670.3607441751166 366.28935947884503 660.2363665780543 363.40378748557913ZM794.738847333129 468.5281602747313L794.738847333129 468.5281602747313Q790.7089967908095 468.6027871366261 785.982628870805 466.11522507346587Q781.2562609508004 463.6276630103056 777.6741715798497 459.7719418124072L777.6741715798497 459.7719418124072Q776.0075049975324 458.03064836819505 774.340838415215 455.66746440819276Q772.6990474535293 453.3042804481906 773.2960623486877 447.45850959976394L773.2960623486877 447.45850959976394Q773.9925797263726 440.79184327049455 774.713972724689 435.2943311109104Q775.4104901023738 429.77194333069457 776.28113682448 423.926172482268L776.28113682448 423.926172482268L774.962728931005 423.30428196647796Q773.1219330042665 427.95602302458764 770.5597440792114 434.1500525618566Q767.9726795335248 440.36895771975725 764.8632269545744 446.7371166014475Q761.7537743756242 453.1301511037694 758.5199436935159 458.37890705703745Q755.2861130114075 463.6276630103056 752.2264116737203 466.3391056591503L752.2264116737203 466.3391056591503Q749.7886008518233 468.2545284477837 747.3259144092947 468.4286577922049L747.3259144092947 468.4286577922049Q744.9627304492924 468.5281602747313 742.5995464892902 467.20975238125635Q740.236362529288 465.8913444877814 737.6244223629697 464.07542418167446L737.6244223629697 464.07542418167446Q735.5348702299151 462.4833844612519 732.8234275810704 461.09034970588215Q730.1119849322258 459.6973149505124 728.0970596610659 457.9311458856686Q726.0821343899062 456.1898524414565 725.9826319073798 453.9261709639806L725.9826319073798 453.9261709639806Q725.9826319073798 452.08537503724204 726.156761251801 447.1848777728163Q726.3308905962222 442.28438050839065 726.2562637343274 438.8017936199663L726.2562637343274 438.8017936199663Q726.156761251801 431.8863710843808 725.3856170122212 422.7321426919511Q724.58959715201 413.60278992015293 723.1965623966403 404.47343714835483Q721.8035276412705 395.31920875592516 719.6144730256894 388.5032887028661L719.6144730256894 388.5032887028661Q718.5696969591622 384.9211993319153 718.5696969591622 383.7022939209668L718.5696969591622 383.7022939209668Q718.5696969591622 381.936124856123 720.7338759541117 378.8764235184359L720.7338759541117 378.8764235184359Q726.0821343899062 371.985876603482 732.848303201702 368.30428475000485Q739.6393476341295 364.62269289652767 745.1866110349769 363.1301556586315Q750.7338744358242 361.662494041367 752.4005410181416 361.4883646969458L752.4005410181416 361.4883646969458Q759.3905904156219 366.28935947884503 764.6890976101532 373.45353822074657Q769.9876048046846 380.6425925832797 773.9179528644778 387.35901015381233L773.9179528644778 387.35901015381233Q773.8184503819514 379.57294089612077 773.5199429343721 373.7769212889574Q773.2214354867929 367.9560260611624 773.2214354867929 365.8415983074762L773.2214354867929 365.8415983074762Q774.6144702421626 364.8963247234753 778.718947646377 364.1500561045272Q782.8234250505915 363.40378748557913 787.8980516594384 363.40378748557913L787.8980516594384 363.40378748557913Q803.2214339685055 363.40378748557913 812.1269061546192 373.9759262540102L812.1269061546192 373.9759262540102Q812.3010354990404 375.6425928363276 811.6542693626187 380.9411000308589Q811.0075032261971 386.2396072253902 809.639344091459 393.65254217360774Q808.2960605773524 401.0903527424569 806.3060109268242 409.44856127467534Q804.3408368969276 417.8067698068938 802.0274041781886 425.7669684090066Q799.7139714594496 433.7271670111194 797.1020312931313 439.84656968649364L797.1020312931313 439.84656968649364L812.2264086371456 431.7868686018544L819.6642192059948 442.3838829909171Q816.6791447302024 449.37393238839735 812.7985479116725 455.26945447808714Q808.8930754725109 461.18985218840857 804.3408368969276 464.7968171799909Q799.813473941976 468.4286577922049 794.738847333129 468.5281602747313ZM752.3259141562468 435.89134600606883L754.937854322565 437.13512703764894Q757.3756651444621 434.7719430776467 760.1866102758331 430.51821194964265Q762.9726797865726 426.2893564422703 765.6841224354173 421.5132372810026Q768.395565084262 416.7619937403665 770.584619699843 412.55801385362565Q772.773674315424 408.35403396688486 773.8184503819514 406.09035248940904L773.8184503819514 406.09035248940904Q773.9925797263726 404.32418342456526 773.9925797263726 404.2495565626704Q773.9925797263726 404.150054080144 773.9925797263726 403.4535367024592Q773.9925797263726 402.75701932477426 773.9925797263726 399.07542747129713L773.9925797263726 399.07542747129713Q768.7438237731044 397.7818951984538 764.1169583356264 396.9112484763477Q759.4900928981483 396.01572613361003 755.2861130114075 395.0704525496091L755.2861130114075 395.0704525496091L755.3856154939339 404.4236859070916Q755.5597448383551 412.38388450920445 754.7139737368807 420.169953766896Q753.8930782560377 427.95602302458764 752.3259141562468 435.89134600606883L752.3259141562468 435.89134600606883ZM864.8632218936165 468.5281602747313L864.8632218936165 468.5281602747313Q857.4254113247673 468.5281602747313 850.7836206161295 466.98587179557194Q844.1418299074917 465.4684589370442 841.0821285698045 462.5828869437783L841.0821285698045 462.5828869437783Q842.052277774437 454.0007978258754 843.0473025997011 449.5978129740818Q844.0423274249652 445.16995250165655 845.6343671453877 441.9361218195482L845.6343671453877 441.9361218195482L834.0920791723242 406.09035248940904L819.6642192059948 388.9510498742349Q820.5348659281008 383.25453274959796 822.5497911992607 377.9560255550666Q824.5398408497888 372.68239398116685 828.4950645302135 369.69731950537454L828.4950645302135 369.69731950537454Q833.4701886565341 365.9411007900026 839.291083884329 364.8465734822121Q845.1119791121241 363.7520461744216 850.0871032384446 365.49333961863374Q855.0622273647651 367.2595086834775 857.5249138072937 372.33413529232445L857.5249138072937 372.33413529232445L857.5995406691885 372.33413529232445Q858.2214311849787 373.62766756516777 859.4403365959272 378.85154789780427Q860.6592420068756 384.05055260980924 862.1517792447718 391.6624925230796Q863.6443164826679 399.24955681571834 865.0373512380377 407.90627279551603Q866.4303859934074 416.58786439594525 867.524913301198 424.9709485487953Q868.6194406089885 433.37890832227697 868.9676992978309 440.02069903091484L868.9676992978309 440.02069903091484L870.1119778468845 440.0953258928096Q872.4751618068868 434.1500525618566 874.5647139399415 427.06050068184993Q876.6791416936276 419.99582442247487 878.2960570346818 413.30428247257373Q879.912972375736 406.6127405226727 880.6841166153156 402.0605019470894L880.6841166153156 402.0605019470894Q876.8532710380489 398.72716878245467 873.1716791845718 395.1450794115039Q869.4900873310945 391.5629900405532 866.6045153378286 385.1699555382313L866.6045153378286 385.1699555382313Q869.1418286422521 379.1500553453835 874.2662064923622 374.0256774952734Q879.3905843424723 368.9261752657949 885.5597382591097 365.49333961863374Q891.7040165551156 362.08537959210423 897.3010311972262 361.38886221441936L897.3010311972262 361.38886221441936Q903.5199363551268 366.56299130579265 907.1020257260775 375.9162246632752Q910.6841150970283 385.2694580207577 911.0323737858707 394.1003033449766L911.0323737858707 394.1003033449766Q909.1169509972374 398.1301538872962 904.9129711104965 406.9112479702519Q900.7338668443872 415.6923420532076 895.2114790641715 426.53811264858626Q889.7139669045873 437.38388324396493 883.5696886085816 447.5331364616588L883.5696886085816 447.5331364616588Q884.9875989845829 450.3440815930299 886.1567531542682 454.0007978258754Q887.3507829445851 457.68238967935264 888.2214296666912 462.8316431500943L888.2214296666912 462.8316431500943Q884.7139671576352 465.7172151433602 878.2960570346818 467.13512551936157Q871.8532712910968 468.5281602747313 864.8632218936165 468.5281602747313ZM942.6990388499007 468.4286577922049L942.6990388499007 468.4286577922049Q939.6393375122136 468.4286577922049 935.4353576254728 466.6376131067295Q931.2562533593635 464.8465684212541 927.2761540583072 461.8366183248302Q923.2960547572508 458.8266682284063 920.6592389703009 455.21970323682393Q918.0472988039826 451.6376138658732 918.0472988039826 448.1550269774488L918.0472988039826 448.1550269774488Q918.0472988039826 446.9112459458687 918.2214281484038 446.0405992237626Q918.395557492825 445.16995250165655 919.1418261117731 443.08040036860194Q919.8632191100896 440.9659726149157 921.5298856924069 436.38885841870086Q923.1965522747244 431.7868686018544 926.2562536124115 423.2296551045832L926.2562536124115 423.2296551045832L914.8134681218743 377.65751810748736Q917.4254082881926 374.42368742537906 921.9278956225126 371.53811543211316Q926.4303829568327 368.65254343884726 931.9030194957852 366.8117475121087Q937.3756560347377 364.9709515853701 942.798541332427 364.9709515853701L942.798541332427 364.9709515853701Q946.803516254115 364.9709515853701 950.4851081075923 366.16498137568703Q954.1666999610694 367.33413554537236 957.2264012987565 370.045578194217L957.2264012987565 370.045578194217Q956.9527694718089 371.36398608769196 956.4303814385453 376.2644833521176Q955.9079934052816 381.16498061654335 955.1119735450703 388.22965687591847Q954.3408293054906 395.31920875592516 953.3209288595949 403.37890984056435Q952.3259040343308 411.41373530457196 951.0572473821192 419.0256752178423Q949.7885907299074 426.6376151311127 948.3955559745377 432.4087591176445L948.3955559745377 432.4087591176445L946.7288893922203 439.22467917070355L959.8383414650748 433.37890832227697L966.7537640006603 444.2993057795505Q964.9129680739217 448.5779125281861 961.455256806129 454.274429652823Q957.9975455383362 459.9460711568284 953.2463019977001 464.19980228483246Q948.4701828364325 468.4286577922049 942.6990388499007 468.4286577922049ZM938.9428201345287 357.63264349904733L938.9428201345287 357.63264349904733Q934.738840247788 357.3590116720997 930.6841140848367 355.3192107803083Q926.6045123012539 353.25453426788533 923.6691890667248 350.41871351588264Q920.7587414528273 347.58289276387995 919.9627215926159 344.9460769769301L919.9627215926159 344.9460769769301Q922.5000348970394 338.75204743966106 924.0671989968305 334.77194813860467Q925.659238717253 330.7918488375483 926.903019748833 327.4087644316503Q928.1716764010448 324.050555646384 929.4900842945198 319.67244641522194L929.4900842945198 319.67244641522194Q934.912969592209 319.67244641522194 941.1816259913729 321.33911299753936Q947.4254067699051 323.0057795798567 952.4005308962256 327.1102569840711Q957.4005306431777 331.2147343882855 958.9676947429688 338.65254495713464L958.9676947429688 338.65254495713464Q956.4303814385453 344.69732077061406 950.3856056250659 349.97095234451376Q944.3657054322181 355.26945953904516 938.9428201345287 357.63264349904733ZM1003.569682535432 468.4286577922049L1003.569682535432 468.4286577922049Q1000.6841105421661 468.4286577922049 997.1517724124785 466.7371155892559Q993.5945586621594 465.0206977656753 990.236349876893 462.7072650469363Q986.8532654709951 460.3938323281973 984.3159521665716 458.3291558157743Q981.8035144827797 456.2893549239829 980.9079921400421 455.592837546298L980.9079921400421 455.592837546298Q977.2512759071966 452.43363372608445 976.5547585295117 450.3689572136615Q975.8333655311952 448.3291563218701 976.3806291850905 445.8415942587098Q976.9030172183541 443.32915657491793 976.9030172183541 438.8017936199663L976.9030172183541 438.8017936199663Q976.9030172183541 430.6674656734323 976.281126702564 421.38885917784455Q975.659236186774 412.1102526822568 974.5398332583518 403.901297873828Q973.3955547092982 395.66746744476757 971.654261265086 390.69234331844706L971.654261265086 390.69234331844706Q971.032370749296 388.8515473917085 970.6343608191903 387.53313949823354Q970.2363508890846 386.2396072253902 970.2363508890846 385.34408488265257L970.2363508890846 385.34408488265257Q970.2363508890846 382.8316471988607 973.221425364877 379.622692137384Q976.2064998406693 376.4386126965389 979.9129673147779 373.60279194453614Q983.6194347888868 370.74209557190187 985.9079918869942 369.44856329905855L985.9079918869942 369.44856329905855Q988.17167336447 368.03065292305723 992.0273945623685 366.16498137568703Q995.883115760267 364.2744342076852 999.8880906819548 362.8316482110523Q1003.9179412242745 361.38886221441936 1006.6293838731191 361.38886221441936L1006.6293838731191 361.38886221441936Q1009.2413240394374 361.38886221441936 1013.146796478599 363.10528003799993Q1017.027393297129 364.79682224094887 1020.8084876331325 366.8117475121087Q1024.5647063485044 368.82667278326846 1026.7537609640856 369.8714488497958L1026.7537609640856 369.8714488497958L1042.997541236522 374.0754287365366Q1044.1418197855755 381.68736864980696 1042.5249044445216 388.22965687591847Q1040.9079891034673 394.7968207226615 1037.9477902483065 399.7968204696136Q1034.9627157725142 404.7719445959341 1031.9030144348271 407.781894692358Q1028.8433130971403 410.8167204094135 1027.1766465148228 411.3391084426772L1027.1766465148228 411.3391084426772Q1020.5348558061849 407.3838847622523 1015.6841097830223 400.9162233980357Q1010.8333637598599 394.4485620338191 1006.704010735014 388.9510498742349L1006.704010735014 388.9510498742349Q1007.4254037333303 395.2445818940303 1007.450279353962 404.4236859070916Q1007.5000305952251 413.60278992015293 1006.8035132175403 423.17990386331996Q1006.1069958398555 432.7570178064869 1004.440329257538 440.4435845816521L1004.440329257538 440.4435845816521L1006.1069958398555 441.8614949576534Q1008.1965479729101 440.9659726149157 1012.9229158929145 438.65253989617673Q1017.6492838129191 436.33910717743765 1023.3209253169243 433.45353518417176Q1029.0174424415613 430.5679631909059 1033.917939705987 427.95602302458764L1033.917939705987 427.95602302458764L1042.748785030206 441.31423130375816Q1041.181620930415 444.1251764351292 1036.8781385611478 448.62766376944927Q1032.5995318125122 453.1301511037694 1026.778636584717 457.68238967935264Q1020.9826169775538 462.23462825493584 1014.8383386815478 465.34408083388615Q1008.7189360061736 468.4286577922049 1003.569682535432 468.4286577922049ZM1095.310971424782 468.4286577922049L1095.310971424782 468.4286577922049Q1090.93286219362 468.00577224146764 1085.2612206896147 466.7371155892559Q1079.5647035649777 465.4684589370442 1073.8433108197091 463.5779117690424Q1068.0970424538089 461.7122402216722 1063.395550154436 459.4236831235648Q1058.6691822344314 457.1600016460889 1056.3059982744294 454.79681768608674L1056.3059982744294 454.79681768608674Q1053.1467944542158 434.7719430776467 1051.3557497687405 415.791844535734Q1049.564705083265 396.81174599382126 1052.2761477321096 378.7022941740147L1052.2761477321096 378.7022941740147Q1054.191570520743 376.2644833521176 1059.1915702676952 373.45353822074657Q1064.1666943940156 370.6674687100071 1070.3855995519161 368.08040416432044Q1076.5796290891853 365.49333961863374 1082.2761462138224 363.67741931252675Q1087.9726633384591 361.8366233857882 1091.2811208824623 361.38886221441936L1091.2811208824623 361.38886221441936Q1098.619428968785 362.08537959210423 1106.9030106391087 364.8465734822121Q1115.1617166888009 367.60776737232 1122.3258954307023 371.66249353527115Q1129.4900741726037 375.74209531885396 1133.3457953705022 380.36896075633206L1133.3457953705022 380.36896075633206Q1134.2164420926083 384.29930881612523 1134.490073919556 388.6276668060241Q1134.738830125872 392.95602479592293 1134.738830125872 400.31920850287725L1134.738830125872 400.31920850287725Q1134.738830125872 408.9759244826749 1133.6940540593446 419.10030207973716Q1132.6492779928174 429.24955529743096 1131.0821138930264 438.25452996607106Q1129.4900741726037 447.28438025534274 1128.022412555339 452.6823899324005L1128.022412555339 452.6823899324005Q1126.3557459730218 454.6226883416655 1121.903009879965 457.40875785240496Q1117.4253981662766 460.219702983776 1113.6691794509047 462.1351257724095L1113.6691794509047 462.1351257724095Q1108.072164808794 464.94607090378054 1103.8433093014216 466.4634837623083Q1099.5895781734175 468.00577224146764 1095.310971424782 468.4286577922049ZM1097.2263942134155 447.45850959976394L1097.2263942134155 447.45850959976394L1102.0522646159461 444.1251764351292Q1102.4751501666835 439.32418165322997 1102.5995282698414 434.4485600094359Q1102.7487819936312 429.59781398627337 1102.7487819936312 424.6973167218477L1102.7487819936312 424.6973167218477Q1102.7487819936312 418.0555260132098 1102.4005233047887 411.1649790982559Q1102.0522646159461 404.2495565626704 1101.256244755735 396.7122435112949L1101.256244755735 396.7122435112949L1087.7736583734065 391.2147313517107L1082.54977804077 393.75204465613416Q1081.480126353611 404.2495565626704 1081.480126353611 414.82169533110147L1081.480126353611 414.82169533110147Q1081.480126353611 421.28935669531813 1081.803509421822 427.90627178332437Q1082.102016869401 434.4983112506991 1082.723907385191 441.14010195933696L1082.723907385191 441.14010195933696Q1085.4353500340358 442.90627102418074 1089.042315025618 444.6973157096561Q1092.6741556378322 446.48836039513145 1097.2263942134155 447.45850959976394ZM1171.3059924543277 468.4286577922049L1171.3059924543277 468.4286577922049Q1165.708977812217 468.4286577922049 1159.191565206737 466.5629862448347Q1152.6741526012574 464.67243907683286 1149.3408194366225 460.91622036146094L1149.3408194366225 460.91622036146094Q1150.5846004682028 453.8266684814542 1151.5298740522035 449.27442990587093Q1152.5000232568361 444.7470669509193 1153.4204212202053 441.3639825450214Q1154.3408191835747 438.005773759755 1155.4850977326284 434.4983112506991L1155.4850977326284 434.4983112506991Q1154.1666898391536 431.43860991301193 1152.4502720155729 425.07045103132174Q1150.758729812624 418.6774165289999 1148.9676851271486 410.8167204094135Q1147.176640441673 402.9311486691955 1145.6343519625138 395.31920875592516Q1144.1169391039862 387.7072688426548 1143.1965411406168 382.0356273386494Q1142.2761431772474 376.33911021401246 1142.2761431772474 374.5231899079055L1142.2761431772474 374.5231899079055Q1142.2761431772474 374.32418494285264 1142.3010187978791 374.15005559843144Q1142.3507700391424 373.9759262540102 1142.3507700391424 373.9012993921154L1142.3507700391424 373.9012993921154Q1144.4651977928283 370.39383688305946 1148.8681826446223 368.08040416432044Q1153.2960431170472 365.76697144558136 1158.569674690947 364.62269289652767Q1163.8681818854784 363.50328996810555 1168.594549805483 363.50328996810555L1168.594549805483 363.50328996810555Q1172.6990272096973 363.50328996810555 1175.9826091330688 364.1998073457904Q1179.2661910564402 364.8963247234753 1181.2811163276 366.73712065021385L1181.2811163276 366.73712065021385L1174.8880818252783 421.4634860397394L1176.281116580648 421.737117866687Q1180.65922581181 407.3838847622523 1184.1169370796028 393.05552727844935Q1187.5746483473956 378.7022941740147 1193.4204191958224 364.79682224094887L1193.4204191958224 364.79682224094887Q1195.9577325002456 364.0256780013692 1198.942806976038 363.7520461744216Q1201.9030058311987 363.50328996810555 1205.062209651412 363.50328996810555L1205.062209651412 363.50328996810555Q1213.5447962867886 363.50328996810555 1221.6791242333227 366.21473261695024Q1229.8134521798568 368.9261752657949 1235.7587255108097 375.9162246632752L1235.7587255108097 375.9162246632752Q1235.7587255108097 381.51323930538575 1234.6641982030192 389.32418418370895Q1233.5696708952285 397.1600046826637 1231.654248106595 405.9908500068826Q1229.7139496973302 414.82169533110147 1227.1517607722753 423.52816255216237Q1224.5646962265885 432.2346297732233 1221.5796217507964 439.4983109976512L1221.5796217507964 439.4983109976512L1236.4552428884945 431.7122417399596L1244.2413121461861 442.28438050839065Q1242.4005162194476 447.8813951505012 1238.6442975040754 453.95104658461224Q1234.8880787887035 460.0455736393548 1230.0622083861729 464.24955352609567Q1225.2612136042735 468.4286577922049 1220.1865869954263 468.4286577922049L1220.1865869954263 468.4286577922049Q1216.082109591212 468.4286577922049 1211.455244153734 466.11522507346587Q1206.8035030956244 463.80179235472684 1203.569672413516 460.3938323281973L1203.569672413516 460.3938323281973Q1200.509971075829 457.1600016460889 1199.2910656648805 454.34905651471786Q1198.072160253932 451.5629870039784 1198.246289598353 447.3590071172376L1198.246289598353 447.3590071172376L1200.435344213934 399.17492995382355L1197.8980309095107 398.37891009361226Q1193.5945485402435 407.73214345109477 1189.4154442741342 416.6624912578401Q1185.2114643873933 425.5928390645854 1180.3109671229677 435.19482862838396L1180.3109671229677 435.19482862838396Q1182.5000217385486 441.5878631307058 1184.291066424024 448.62766376944927Q1186.0821111094995 455.66746440819276 1187.6492752092904 464.5978122149381L1187.6492752092904 464.5978122149381Q1184.6890763541296 466.68736434799274 1180.5845989499153 467.55801107009876Q1176.4552459250692 468.4286577922049 1171.3059924543277 468.4286577922049ZM1267.599519919261 469.672438823785L1267.599519919261 469.672438823785Q1260.75872424557 466.68736434799274 1255.0870827415647 461.8366183248302Q1249.390565616928 456.9858723016677 1246.8532523125043 449.6226885947134L1246.8532523125043 449.6226885947134Q1247.375640345768 448.0555244949224 1249.88807802956 444.5231863652349Q1252.3756400927202 440.9659726149157 1255.6840976367232 436.91124645196453Q1259.017430801358 432.83164466838167 1262.1268833803083 429.5729383656418Q1265.2363359592584 426.2893564422703 1266.8781269209444 425.1450778932165L1266.8781269209444 425.1450778932165Q1275.2860866944259 427.50826185321876 1282.0522555062219 433.00577401280293Q1288.8432999386494 438.5281617930187 1293.2960360317063 444.7470669509193L1293.2960360317063 444.7470669509193Q1291.9776281382312 450.5182109374511 1287.30101145949 455.717215649456Q1282.6243947807486 460.91622036146094 1277.0771313799014 464.6226878355697Q1271.5298679790542 468.3540309303101 1267.599519919261 469.672438823785ZM1327.3258850557384 468.4286577922049L1327.3258850557384 468.4286577922049Q1324.2661837180515 468.4286577922049 1320.0622038313106 466.6376131067295Q1315.8582239445698 464.8465684212541 1311.8781246435133 461.8366183248302Q1307.8980253424568 458.8266682284063 1305.2860851761386 455.21970323682393Q1302.6492693891887 451.6376138658732 1302.6492693891887 448.1550269774488L1302.6492693891887 448.1550269774488Q1302.6492693891887 446.9112459458687 1302.82339873361 446.0405992237626Q1302.997528078031 445.16995250165655 1303.7437966969794 443.08040036860194Q1304.4900653159273 440.9659726149157 1306.1567318982445 436.38885841870086Q1307.823398480562 431.7868686018544 1310.883099818249 423.2296551045832L1310.883099818249 423.2296551045832L1299.4154387070805 377.65751810748736Q1302.0522544940302 374.42368742537906 1306.5547418283502 371.53811543211316Q1311.0572291626704 368.65254343884726 1316.529865701623 366.8117475121087Q1321.977626619944 364.9709515853701 1327.4005119176334 364.9709515853701L1327.4005119176334 364.9709515853701Q1331.430362459953 364.9709515853701 1335.11195431343 366.16498137568703Q1338.7686705462754 367.33413554537236 1341.8283718839627 370.045578194217L1341.8283718839627 370.045578194217Q1341.5796156776466 371.36398608769196 1341.057227644383 376.2644833521176Q1340.5348396111194 381.16498061654335 1339.7388197509079 388.22965687591847Q1338.9427998906967 395.31920875592516 1337.9477750654326 403.37890984056435Q1336.9278746195369 411.41373530457196 1335.6840935879568 419.0256752178423Q1334.415436935745 426.6376151311127 1332.9975265597438 432.4087591176445L1332.9975265597438 432.4087591176445L1331.3308599774264 439.22467917070355L1344.4651876709124 433.37890832227697L1351.380610206498 444.2993057795505Q1349.5398142797594 448.5779125281861 1346.0821030119666 454.274429652823Q1342.624391744174 459.9460711568284 1337.8482725829062 464.19980228483246Q1333.0970290422704 468.4286577922049 1327.3258850557384 468.4286577922049ZM1323.5696663403662 357.63264349904733L1323.5696663403662 357.63264349904733Q1319.3656864536256 357.3590116720997 1315.2860846700428 355.3192107803083Q1311.2313585070917 353.25453426788533 1308.2960352725624 350.41871351588264Q1305.3607120380334 347.58289276387995 1304.5895677984538 344.9460769769301L1304.5895677984538 344.9460769769301Q1307.1268811028774 338.75204743966106 1308.6940452026681 334.77194813860467Q1310.2612093024593 330.7918488375483 1311.5298659546709 327.4087644316503Q1312.7985226068824 324.050555646384 1314.1169305003575 319.67244641522194L1314.1169305003575 319.67244641522194Q1319.539815798047 319.67244641522194 1325.7835965765792 321.33911299753936Q1332.052252975743 323.0057795798567 1337.0273771020634 327.1102569840711Q1342.0025012283838 331.2147343882855 1343.5945409488065 338.65254495713464L1343.5945409488065 338.65254495713464Q1341.057227644383 344.69732077061406 1335.0124518309037 349.97095234451376Q1328.9925516380558 355.26945953904516 1323.5696663403662 357.63264349904733ZM1401.0323489871766 468.4286577922049L1401.0323489871766 468.4286577922049Q1396.6791153766462 468.00577224146764 1390.9825982520092 466.7371155892559Q1385.310956748004 465.4684589370442 1379.5646883821037 463.5779117690424Q1373.8432956368351 461.7122402216722 1369.1169277168306 459.4236831235648Q1364.3905597968262 457.1600016460889 1362.027375836824 454.79681768608674L1362.027375836824 454.79681768608674Q1358.893047637242 434.7719430776467 1357.1020029517665 415.791844535734Q1355.3109582662912 396.81174599382126 1358.022400915136 378.7022941740147L1358.022400915136 378.7022941740147Q1359.9378237037693 376.2644833521176 1364.91294783009 373.45353822074657Q1369.912947577042 370.6674687100071 1376.106977114311 368.08040416432044Q1382.3258822722116 365.49333961863374 1388.0223993968486 363.67741931252675Q1393.6940409008537 361.8366233857882 1397.0273740654886 361.38886221441936L1397.0273740654886 361.38886221441936Q1404.3656821518114 362.08537959210423 1412.6243882015035 364.8465734822121Q1420.8830942511954 367.60776737232 1428.0721486137286 371.66249353527115Q1435.23632735563 375.74209531885396 1439.0920485535285 380.36896075633206L1439.0920485535285 380.36896075633206Q1439.9626952756346 384.29930881612523 1440.2114514819507 388.6276668060241Q1440.485083308898 392.95602479592293 1440.485083308898 400.31920850287725L1440.485083308898 400.31920850287725Q1440.485083308898 408.9759244826749 1439.4403072423709 419.10030207973716Q1438.3955311758434 429.24955529743096 1436.8034914554212 438.25452996607106Q1435.23632735563 447.28438025534274 1433.7437901177339 452.6823899324005L1433.7437901177339 452.6823899324005Q1432.0771235354166 454.6226883416655 1427.6243874423596 457.40875785240496Q1423.1716513493027 460.219702983776 1419.415432633931 462.1351257724095L1419.415432633931 462.1351257724095Q1413.8184179918203 464.94607090378054 1409.5646868638162 466.4634837623083Q1405.3358313564438 468.00577224146764 1401.0323489871766 468.4286577922049ZM1402.9726473964417 447.45850959976394L1402.9726473964417 447.45850959976394L1407.7736421783409 444.1251764351292Q1408.2214033497096 439.32418165322997 1408.3457814528679 434.4485600094359Q1408.4701595560257 429.59781398627337 1408.4701595560257 424.6973167218477L1408.4701595560257 424.6973167218477Q1408.4701595560257 418.0555260132098 1408.1219008671833 411.1649790982559Q1407.7736421783409 404.2495565626704 1407.002497938761 396.7122435112949L1407.002497938761 396.7122435112949L1393.5199115564326 391.2147313517107L1388.2711556031645 393.75204465613416Q1387.2263795366373 404.2495565626704 1387.2263795366373 414.82169533110147L1387.2263795366373 414.82169533110147Q1387.2263795366373 421.28935669531813 1387.5248869842164 427.90627178332437Q1387.8482700524273 434.4983112506991 1388.4452849475858 441.14010195933696L1388.4452849475858 441.14010195933696Q1391.1567275964305 442.90627102418074 1394.7885682086446 444.6973157096561Q1398.4204088208583 446.48836039513145 1402.9726473964417 447.45850959976394Z " fill="#81111" transform="matrix(0.6074342707436763,0,0,0.6074342707436762,0,60.2624212813308)"/></g></svg>